<?xml version="1.0" encoding="UTF-8" standalone="no"?>
<!-- Created with Inkscape (http://www.inkscape.org/) -->

<svg
   xmlns:dc="http://purl.org/dc/elements/1.1/"
   xmlns:cc="http://creativecommons.org/ns#"
   xmlns:rdf="http://www.w3.org/1999/02/22-rdf-syntax-ns#"
   xmlns:svg="http://www.w3.org/2000/svg"
   xmlns="http://www.w3.org/2000/svg"
   xmlns:sodipodi="http://sodipodi.sourceforge.net/DTD/sodipodi-0.dtd"
   xmlns:inkscape="http://www.inkscape.org/namespaces/inkscape"
   width="729.75861"
   height="596.75177"
   id="svg2985"
   version="1.1"
   inkscape:version="0.48.5 r10040"
   sodipodi:docname="protocols.svg">
  <defs
     id="defs2987" />
  <sodipodi:namedview
     id="base"
     pagecolor="#ffffff"
     bordercolor="#666666"
     borderopacity="1.0"
     inkscape:pageopacity="0.0"
     inkscape:pageshadow="2"
     inkscape:zoom="1.5"
     inkscape:cx="400.27062"
     inkscape:cy="139.86858"
     inkscape:document-units="px"
     inkscape:current-layer="layer1"
     showgrid="false"
     inkscape:window-width="1366"
     inkscape:window-height="720"
     inkscape:window-x="0"
     inkscape:window-y="19"
     inkscape:window-maximized="1"
     fit-margin-top="0"
     fit-margin-left="0"
     fit-margin-right="0"
     fit-margin-bottom="0" />
  <metadata
     id="metadata2990">
    <rdf:RDF>
      <cc:Work
         rdf:about="">
        <dc:format>image/svg+xml</dc:format>
        <dc:type
           rdf:resource="http://purl.org/dc/dcmitype/StillImage" />
        <dc:title />
      </cc:Work>
    </rdf:RDF>
  </metadata>
  <g
     id="layer1"
     inkscape:label="Layer 1"
     inkscape:groupmode="layer"
     transform="translate(3.469698,-38.530301)">
    <rect
       y="327.91626"
       x="-3.839649"
       height="154.35136"
       width="732.05627"
       id="rect4136"
       style="fill:#23e6cf;fill-opacity:1;fill-rule:nonzero;stroke:#000000;stroke-width:1.01635838;stroke-miterlimit:4;stroke-opacity:1;stroke-dasharray:none;stroke-dashoffset:0" />
    <rect
       style="fill:#4affdb;fill-opacity:0.66666667;fill-rule:nonzero;stroke:#000000;stroke-width:1.26026845;stroke-miterlimit:4;stroke-opacity:1;stroke-dasharray:none;stroke-dashoffset:0"
       id="rect3998"
       width="732.58167"
       height="155.5744"
       x="-3.682277"
       y="480.43411" />
    <g
       id="g4239">
      <rect
         ry="19.269245"
         y="496.60709"
         x="22.474939"
         height="60.644321"
         width="195.05013"
         id="rect3011-6-8-4"
         style="fill:#4a6eff;fill-opacity:1;stroke:#333333;stroke-width:0.60111201" />
      <text
         transform="scale(1.0226204,0.97788)"
         sodipodi:linespacing="125%"
         id="text3041"
         y="550.58313"
         x="39.1152"
         style="font-size:39.11520004px;font-style:normal;font-weight:normal;line-height:125%;letter-spacing:0px;word-spacing:0px;fill:#000000;fill-opacity:1;stroke:none;font-family:Sans"
         xml:space="preserve"><tspan
           style="font-size:31.29216003px"
           y="550.58313"
           x="39.1152"
           id="tspan3043"
           sodipodi:role="line">Bluetooth</tspan></text>
    </g>
    <text
       xml:space="preserve"
       style="font-size:39.11520004px;font-style:normal;font-weight:normal;line-height:125%;letter-spacing:0px;word-spacing:0px;fill:#000000;fill-opacity:1;stroke:none;font-family:Sans"
       x="107.03312"
       y="623.59821"
       id="text4111"
       sodipodi:linespacing="125%"
       transform="scale(1.0226204,0.97787998)"><tspan
         sodipodi:role="line"
         id="tspan4113"
         x="107.03312"
         y="623.59821">Hardware Protokoll Layer</tspan></text>
    <g
       id="g4119"
       transform="matrix(1,0,0,0.9562493,33.85197,255.99195)">
      <rect
         ry="20.15086"
         y="251.62386"
         x="466.47491"
         height="63.418945"
         width="195.05013"
         id="rect3011-6-8-4-8"
         style="fill:#4a6eff;fill-opacity:1;stroke:#333333;stroke-width:0.61470938" />
      <text
         sodipodi:linespacing="125%"
         id="text4115"
         y="296.66666"
         x="516"
         style="font-size:40px;font-style:normal;font-weight:normal;line-height:125%;letter-spacing:0px;word-spacing:0px;fill:#000000;fill-opacity:1;stroke:none;font-family:Sans"
         xml:space="preserve"><tspan
           y="296.66666"
           x="516"
           id="tspan4117"
           sodipodi:role="line">USB</tspan></text>
    </g>
    <rect
       style="fill:#ff4a5c;fill-opacity:0.66666667;fill-rule:nonzero;stroke:#000000;stroke-width:1.00191808;stroke-miterlimit:4;stroke-opacity:1;stroke-dasharray:none;stroke-dashoffset:0"
       id="rect4005"
       width="729.8139"
       height="129.94754"
       x="-3.0209072"
       y="38.969891" />
    <rect
       style="fill:#ff9b4a;fill-opacity:0.66666667;fill-rule:nonzero;stroke:#000000;stroke-width:0.99764502;stroke-miterlimit:4;stroke-opacity:1;stroke-dasharray:none;stroke-dashoffset:0"
       id="rect4000"
       width="730.45227"
       height="157.47083"
       x="-3.7702203"
       y="169.66563" />
    <rect
       style="fill:#ff9b4a;fill-opacity:1;stroke:#000000;stroke-width:1.86639977;stroke-miterlimit:4;stroke-opacity:1;stroke-dasharray:none;stroke-dashoffset:0"
       id="rect3918-6"
       width="286.65875"
       height="89.333336"
       x="403.21655"
       y="60" />
    <g
       style="font-size:40px;font-style:normal;font-weight:normal;line-height:125%;letter-spacing:0px;word-spacing:0px;fill:#000000;fill-opacity:1;stroke:none;font-family:Sans"
       id="text3947">
      <path
         d="m 456.16928,96.696602 -2.67578,7.255858 5.36133,0 -2.68555,-7.255858 m -1.11328,-1.94336 2.23633,0 5.55664,14.580078 -2.05078,0 -1.32813,-3.74023 -6.57226,0 -1.32813,3.74023 -2.08008,0 5.56641,-14.580078"
         style="font-size:20px"
         id="path3039" />
      <path
         d="m 473.98178,102.73176 0,6.60156 -1.79687,0 0,-6.54297 c -10e-6,-1.03515 -0.20184,-1.80989 -0.60547,-2.32422 -0.40366,-0.51431 -1.00912,-0.771472 -1.81641,-0.771481 -0.97006,9e-6 -1.73503,0.309251 -2.29492,0.927731 -0.5599,0.6185 -0.83985,1.4616 -0.83984,2.5293 l 0,6.18164 -1.80665,0 0,-10.937499 1.80665,0 0,1.699219 c 0.42968,-0.657543 0.93424,-1.149079 1.51367,-1.47461 0.58593,-0.32551 1.25976,-0.48827 2.02148,-0.488281 1.2565,1.1e-5 2.20702,0.390636 2.85156,1.171875 0.64452,0.774746 0.96679,1.917326 0.9668,3.427736"
         style="font-size:20px"
         id="path3041" />
      <path
         d="m 484.78256,100.05598 0,-5.917972 1.79688,0 0,15.195312 -1.79688,0 0,-1.64062 c -0.37761,0.65104 -0.85613,1.13606 -1.43554,1.45507 -0.57293,0.3125 -1.26303,0.46875 -2.07032,0.46875 -1.32162,0 -2.39909,-0.52734 -3.23242,-1.58203 -0.82682,-1.05468 -1.24023,-2.4414 -1.24023,-4.16015 0,-1.71875 0.41341,-3.10546 1.24023,-4.16016 0.83333,-1.054677 1.9108,-1.58202 3.23242,-1.582031 0.80729,1.1e-5 1.49739,0.159516 2.07032,0.478515 0.57941,0.312511 1.05793,0.794281 1.43554,1.445316 m -6.12304,3.81836 c -10e-6,1.32161 0.27017,2.36003 0.81054,3.11523 0.54687,0.7487 1.29557,1.12305 2.2461,1.12305 0.95051,0 1.69921,-0.37435 2.24609,-1.12305 0.54687,-0.7552 0.8203,-1.79362 0.82031,-3.11523 -10e-6,-1.32161 -0.27344,-2.35677 -0.82031,-3.10547 -0.54688,-0.7552 -1.29558,-1.132805 -2.24609,-1.132815 -0.95053,1e-5 -1.69923,0.377615 -2.2461,1.132815 -0.54037,0.7487 -0.81055,1.78386 -0.81054,3.10547"
         style="font-size:20px"
         id="path3043" />
      <path
         d="m 496.6185,100.07551 c -0.20183,-0.11718 -0.42319,-0.201815 -0.66406,-0.253908 -0.23439,-0.05858 -0.4948,-0.08788 -0.78125,-0.08789 -1.01563,1e-5 -1.79688,0.332039 -2.34375,0.996089 -0.54037,0.65757 -0.81055,1.60483 -0.81055,2.8418 l 0,5.76172 -1.80664,0 0,-10.937499 1.80664,0 0,1.699219 c 0.3776,-0.664053 0.86914,-1.155589 1.47461,-1.47461 0.60546,-0.32551 1.34114,-0.48827 2.20703,-0.488281 0.12369,1.1e-5 0.26041,0.0098 0.41016,0.0293 0.14973,0.01303 0.31574,0.03582 0.49804,0.06836 l 0.01,1.845705"
         style="font-size:20px"
         id="path3045" />
      <path
         d="m 502.33139,99.655586 c -0.96355,1e-5 -1.72526,0.377614 -2.28516,1.132814 -0.55989,0.7487 -0.83984,1.77735 -0.83984,3.08594 0,1.30859 0.27669,2.34049 0.83008,3.0957 0.55989,0.7487 1.32486,1.12305 2.29492,1.12305 0.95702,0 1.71549,-0.37761 2.27539,-1.13282 0.55989,-0.7552 0.83984,-1.78385 0.83984,-3.08593 0,-1.29557 -0.27995,-2.32096 -0.83984,-3.07618 -0.5599,-0.76171 -1.31837,-1.142564 -2.27539,-1.142574 m 0,-1.523437 c 1.56249,1.1e-5 2.78971,0.507823 3.68164,1.523437 0.89192,1.015634 1.33788,2.421884 1.33789,4.218754 -10e-6,1.79036 -0.44597,3.19661 -1.33789,4.21875 -0.89193,1.01562 -2.11915,1.52343 -3.68164,1.52343 -1.56901,0 -2.79948,-0.50781 -3.69141,-1.52343 -0.88541,-1.02214 -1.32812,-2.42839 -1.32812,-4.21875 0,-1.79687 0.44271,-3.20312 1.32812,-4.218754 0.89193,-1.015614 2.1224,-1.523426 3.69141,-1.523437"
         style="font-size:20px"
         id="path3047" />
      <path
         d="m 510.31967,98.395821 1.79688,0 0,10.937499 -1.79688,0 0,-10.937499 m 0,-4.257813 1.79688,0 0,2.275391 -1.79688,0 0,-2.275391"
         style="font-size:20px"
         id="path3049" />
      <path
         d="m 523.06381,100.05598 0,-5.917972 1.79688,0 0,15.195312 -1.79688,0 0,-1.64062 c -0.37761,0.65104 -0.85613,1.13606 -1.43554,1.45507 -0.57293,0.3125 -1.26303,0.46875 -2.07032,0.46875 -1.32162,0 -2.39909,-0.52734 -3.23242,-1.58203 -0.82682,-1.05468 -1.24023,-2.4414 -1.24023,-4.16015 0,-1.71875 0.41341,-3.10546 1.24023,-4.16016 0.83333,-1.054677 1.9108,-1.58202 3.23242,-1.582031 0.80729,1.1e-5 1.49739,0.159516 2.07032,0.478515 0.57941,0.312511 1.05793,0.794281 1.43554,1.445316 m -6.12304,3.81836 c -1e-5,1.32161 0.27017,2.36003 0.81054,3.11523 0.54687,0.7487 1.29557,1.12305 2.2461,1.12305 0.95051,0 1.69921,-0.37435 2.24609,-1.12305 0.54687,-0.7552 0.8203,-1.79362 0.82031,-3.11523 -10e-6,-1.32161 -0.27344,-2.35677 -0.82031,-3.10547 -0.54688,-0.7552 -1.29558,-1.132805 -2.24609,-1.132815 -0.95053,1e-5 -1.69923,0.377615 -2.2461,1.132815 -0.54037,0.7487 -0.81055,1.78386 -0.81054,3.10547"
         style="font-size:20px"
         id="path3051" />
      <path
         d="m 539.88022,96.696602 -2.67578,7.255858 5.36133,0 -2.68555,-7.255858 m -1.11328,-1.94336 2.23633,0 5.55664,14.580078 -2.05079,0 -1.32812,-3.74023 -6.57227,0 -1.32812,3.74023 -2.08008,0 5.56641,-14.580078"
         style="font-size:20px"
         id="path3053" />
      <path
         d="m 557.69272,102.73176 0,6.60156 -1.79688,0 0,-6.54297 c -10e-6,-1.03515 -0.20183,-1.80989 -0.60547,-2.32422 -0.40365,-0.51431 -1.00912,-0.771472 -1.8164,-0.771481 -0.97006,9e-6 -1.73503,0.309251 -2.29492,0.927731 -0.5599,0.6185 -0.83985,1.4616 -0.83985,2.5293 l 0,6.18164 -1.80664,0 0,-10.937499 1.80664,0 0,1.699219 c 0.42969,-0.657543 0.93424,-1.149079 1.51367,-1.47461 0.58594,-0.32551 1.25976,-0.48827 2.02149,-0.488281 1.2565,1.1e-5 2.20702,0.390636 2.85156,1.171875 0.64452,0.774746 0.96679,1.917326 0.9668,3.427736"
         style="font-size:20px"
         id="path3055" />
      <path
         d="m 560.25131,98.395821 1.79688,0 2.24609,8.535159 2.23633,-8.535159 2.11914,0 2.24609,8.535159 2.23633,-8.535159 1.79688,0 -2.86133,10.937499 -2.11914,0 -2.35352,-8.96484 -2.36328,8.96484 -2.11914,0 -2.86133,-10.937499"
         style="font-size:20px"
         id="path3057" />
      <path
         d="m 587.01889,103.41535 0,0.87891 -8.26172,0 c 0.0781,1.23698 0.44922,2.18099 1.11328,2.83203 0.67057,0.64453 1.60156,0.9668 2.79297,0.9668 0.6901,0 1.35742,-0.0846 2.00195,-0.25391 0.65104,-0.16927 1.29557,-0.42318 1.9336,-0.76172 l 0,1.69922 c -0.64454,0.27344 -1.30535,0.48177 -1.98242,0.625 -0.67709,0.14323 -1.36394,0.21484 -2.06055,0.21484 -1.7448,0 -3.12826,-0.50781 -4.15039,-1.52343 -1.01563,-1.01563 -1.52344,-2.38932 -1.52344,-4.1211 0,-1.79035 0.48177,-3.20962 1.44531,-4.25781 0.97005,-1.054677 2.27539,-1.58202 3.91602,-1.582031 1.47135,1.1e-5 2.63345,0.475271 3.48633,1.425781 0.85936,0.94402 1.28905,2.22983 1.28906,3.85742 m -1.79687,-0.52734 c -0.013,-0.98307 -0.28973,-1.76757 -0.83008,-2.35352 -0.53386,-0.585926 -1.2435,-0.878894 -2.12891,-0.878904 -1.00261,1e-5 -1.80664,0.283213 -2.41211,0.849614 -0.59896,0.56641 -0.94401,1.36394 -1.03515,2.39257 l 6.40625,-0.01"
         style="font-size:20px"
         id="path3059" />
      <path
         d="m 599.05991,102.73176 0,6.60156 -1.79688,0 0,-6.54297 c -10e-6,-1.03515 -0.20183,-1.80989 -0.60547,-2.32422 -0.40365,-0.51431 -1.00912,-0.771472 -1.8164,-0.771481 -0.97006,9e-6 -1.73504,0.309251 -2.29493,0.927731 -0.5599,0.6185 -0.83984,1.4616 -0.83984,2.5293 l 0,6.18164 -1.80664,0 0,-10.937499 1.80664,0 0,1.699219 c 0.42968,-0.657543 0.93424,-1.149079 1.51367,-1.47461 0.58593,-0.32551 1.25976,-0.48827 2.02149,-0.488281 1.2565,1.1e-5 2.20702,0.390636 2.85156,1.171875 0.64452,0.774746 0.96679,1.917326 0.9668,3.427736"
         style="font-size:20px"
         id="path3061" />
      <path
         d="m 609.86069,100.05598 0,-5.917972 1.79687,0 0,15.195312 -1.79687,0 0,-1.64062 c -0.37762,0.65104 -0.85613,1.13606 -1.43555,1.45507 -0.57292,0.3125 -1.26303,0.46875 -2.07031,0.46875 -1.32162,0 -2.39909,-0.52734 -3.23242,-1.58203 -0.82683,-1.05468 -1.24024,-2.4414 -1.24024,-4.16015 0,-1.71875 0.41341,-3.10546 1.24024,-4.16016 0.83333,-1.054677 1.9108,-1.58202 3.23242,-1.582031 0.80728,1.1e-5 1.49739,0.159516 2.07031,0.478515 0.57942,0.312511 1.05793,0.794281 1.43555,1.445316 m -6.12305,3.81836 c 0,1.32161 0.27018,2.36003 0.81055,3.11523 0.54687,0.7487 1.29557,1.12305 2.24609,1.12305 0.95051,0 1.69921,-0.37435 2.24609,-1.12305 0.54687,-0.7552 0.82031,-1.79362 0.82032,-3.11523 -10e-6,-1.32161 -0.27345,-2.35677 -0.82032,-3.10547 -0.54688,-0.7552 -1.29558,-1.132805 -2.24609,-1.132815 -0.95052,1e-5 -1.69922,0.377615 -2.24609,1.132815 -0.54037,0.7487 -0.81055,1.78386 -0.81055,3.10547"
         style="font-size:20px"
         id="path3063" />
      <path
         d="m 615.17319,105.01691 0,-6.621089 1.79687,0 0,6.552729 c 0,1.03516 0.20182,1.81316 0.60547,2.33399 0.40364,0.51432 1.00911,0.77149 1.81641,0.77148 0.97004,1e-5 1.73502,-0.30924 2.29492,-0.92773 0.5664,-0.61849 0.8496,-1.46159 0.84961,-2.5293 l 0,-6.201169 1.79687,0 0,10.937499 -1.79687,0 0,-1.67969 c -0.43621,0.66407 -0.94402,1.15886 -1.52344,1.48438 -0.57292,0.31901 -1.24024,0.47851 -2.00195,0.47851 -1.25652,0 -2.21029,-0.39062 -2.86133,-1.17187 -0.65104,-0.78125 -0.97656,-1.92383 -0.97656,-3.42774 m 4.52148,-6.884761 0,0"
         style="font-size:20px"
         id="path3065" />
      <path
         d="m 637.14584,102.73176 0,6.60156 -1.79687,0 0,-6.54297 c -10e-6,-1.03515 -0.20183,-1.80989 -0.60547,-2.32422 -0.40365,-0.51431 -1.00912,-0.771472 -1.81641,-0.771481 -0.97005,9e-6 -1.73503,0.309251 -2.29492,0.927731 -0.5599,0.6185 -0.83985,1.4616 -0.83984,2.5293 l 0,6.18164 -1.80664,0 0,-10.937499 1.80664,0 0,1.699219 c 0.42968,-0.657543 0.93424,-1.149079 1.51367,-1.47461 0.58593,-0.32551 1.25976,-0.48827 2.02148,-0.488281 1.25651,1.1e-5 2.20703,0.390636 2.85157,1.171875 0.64452,0.774746 0.96678,1.917326 0.96679,3.427736"
         style="font-size:20px"
         id="path3067" />
      <path
         d="m 647.94662,103.73762 c 0,-1.30208 -0.27019,-2.31119 -0.81054,-3.02735 -0.53386,-0.716133 -1.28582,-1.074205 -2.25586,-1.074215 -0.96355,1e-5 -1.7155,0.358082 -2.25586,1.074215 -0.53386,0.71616 -0.80079,1.72527 -0.80078,3.02735 -10e-6,1.29557 0.26692,2.30143 0.80078,3.01758 0.54036,0.71614 1.29231,1.07422 2.25586,1.07421 0.97004,1e-5 1.722,-0.35807 2.25586,-1.07421 0.54035,-0.71615 0.81054,-1.72201 0.81054,-3.01758 m 1.79688,4.23828 c -1e-5,1.86198 -0.41342,3.24544 -1.24023,4.15039 -0.82684,0.91145 -2.09311,1.36718 -3.79883,1.36719 -0.63152,-1e-5 -1.22722,-0.0488 -1.78711,-0.14649 -0.5599,-0.0911 -1.10352,-0.23438 -1.63086,-0.42969 l 0,-1.74804 c 0.52734,0.28645 1.04817,0.49804 1.5625,0.63476 0.51432,0.13672 1.0384,0.20508 1.57226,0.20508 1.17838,0 2.06054,-0.30925 2.64649,-0.92773 0.58593,-0.61198 0.8789,-1.53972 0.8789,-2.78321 l 0,-0.88867 c -0.3711,0.64454 -0.84636,1.12631 -1.42578,1.44531 -0.57943,0.31902 -1.27279,0.47852 -2.08007,0.47852 -1.34115,0 -2.42188,-0.51107 -3.24219,-1.5332 -0.82032,-1.02214 -1.23047,-2.3763 -1.23047,-4.0625 0,-1.6927 0.41015,-3.05012 1.23047,-4.072268 0.82031,-1.022125 1.90104,-1.533192 3.24219,-1.533203 0.80728,1.1e-5 1.50064,0.159516 2.08007,0.478515 0.57942,0.319021 1.05468,0.800792 1.42578,1.445316 l 0,-1.660159 1.79688,0 0,9.580079"
         style="font-size:20px"
         id="path3069" />
    </g>
    <g
       id="g4170"
       transform="translate(18.789251,36)">
      <g
         transform="translate(-8,2.6666667)"
         id="g4167">
        <rect
           style="fill:#924aff;fill-opacity:1;stroke:#333333;stroke-width:0.61470938"
           id="rect3011-6"
           width="195.05013"
           height="63.418945"
           x="253.1416"
           y="146.29053"
           ry="20.15086" />
      </g>
      <text
         sodipodi:linespacing="125%"
         id="text3914"
         y="192.66667"
         x="293.33334"
         style="font-size:40px;font-style:normal;font-weight:normal;line-height:125%;letter-spacing:0px;word-spacing:0px;fill:#000000;fill-opacity:1;stroke:none;font-family:Sans"
         xml:space="preserve"><tspan
           style="font-size:40px"
           y="192.66667"
           x="293.33334"
           id="tspan3916"
           sodipodi:role="line">IOIO</tspan></text>
    </g>
    <rect
       style="fill:#ff9b4a;fill-opacity:1;stroke:#000000;stroke-width:1.98560929;stroke-miterlimit:4;stroke-opacity:1;stroke-dasharray:none;stroke-dashoffset:0"
       id="rect3918"
       width="324.44678"
       height="89.333336"
       x="7.9999986"
       y="60" />
    <g
       style="font-size:40px;font-style:normal;font-weight:normal;line-height:125%;letter-spacing:0px;word-spacing:0px;fill:#000000;fill-opacity:1;stroke:none;font-family:Sans"
       id="text3920">
      <path
         d="m 66.602215,97.225266 0,5.478514 2.480469,0 c 0.917961,1e-5 1.627596,-0.23762 2.128906,-0.71289 0.501293,-0.47525 0.751944,-1.15233 0.751953,-2.031249 -9e-6,-0.872385 -0.25066,-1.546213 -0.751953,-2.021485 -0.50131,-0.475248 -1.210945,-0.712878 -2.128906,-0.71289 l -2.480469,0 m -1.972656,-1.621094 4.453125,0 c 1.634106,1.4e-5 2.867829,0.371108 3.701171,1.113281 0.839833,0.73569 1.259755,1.816418 1.259766,3.242188 -1.1e-5,1.438809 -0.419933,2.526049 -1.259766,3.261719 -0.833342,0.73568 -2.067065,1.10352 -3.701171,1.10351 l -2.480469,0 0,5.85938 -1.972656,0 0,-14.580078"
         style="font-size:20px"
         id="path3075" />
      <path
         d="m 87.61784,96.727219 0,2.080078 C 86.953765,98.188819 86.24413,97.72658 85.488934,97.420578 84.740226,97.114601 83.9427,96.961607 83.096355,96.961594 c -1.666673,1.3e-5 -2.942713,0.51108 -3.828125,1.533203 -0.88542,1.015635 -1.328128,2.486993 -1.328125,4.414063 -3e-6,1.92058 0.442705,3.39193 1.328125,4.41406 0.885412,1.01563 2.161452,1.52344 3.828125,1.52344 0.846345,0 1.643871,-0.15299 2.392579,-0.45899 0.755196,-0.30598 1.464831,-0.76822 2.128906,-1.38671 l 0,2.06054 c -0.690117,0.46875 -1.422538,0.82032 -2.197266,1.05469 -0.768239,0.23438 -1.58204,0.35156 -2.441406,0.35156 -2.207037,0 -3.945317,-0.67382 -5.214844,-2.02148 -1.269533,-1.35416 -1.904298,-3.19987 -1.904297,-5.53711 -10e-7,-2.34374 0.634764,-4.189442 1.904297,-5.53711 1.269527,-1.354153 3.007807,-2.031235 5.214844,-2.03125 0.872387,1.5e-5 1.692698,0.117202 2.460937,0.351562 0.774729,0.227879 1.500639,0.572931 2.177735,1.035157"
         style="font-size:20px"
         id="path3077" />
      <path
         d="m 101.92448,97.547531 -2.675781,7.255859 5.361331,0 -2.68555,-7.255859 m -1.11328,-1.943359 2.23633,0 5.55664,14.580078 -2.05078,0 -1.32813,-3.74023 -6.572264,0 -1.328125,3.74023 -2.080078,0 5.566407,-14.580078"
         style="font-size:20px"
         id="path3079" />
      <path
         d="m 119.73698,103.58269 0,6.60156 -1.79687,0 0,-6.54297 c -1e-5,-1.03515 -0.20184,-1.80989 -0.60547,-2.32422 -0.40366,-0.51431 -1.00913,-0.77147 -1.81641,-0.77148 -0.97006,1e-5 -1.73503,0.30925 -2.29492,0.92773 -0.5599,0.6185 -0.83985,1.4616 -0.83985,2.5293 l 0,6.18164 -1.80664,0 0,-10.9375 1.80664,0 0,1.69922 c 0.42969,-0.65754 0.93425,-1.14908 1.51368,-1.474611 0.58593,-0.32551 1.25976,-0.48827 2.02148,-0.488281 1.2565,1.1e-5 2.20702,0.390636 2.85156,1.171872 0.64452,0.77475 0.96679,1.91733 0.9668,3.42774"
         style="font-size:20px"
         id="path3081" />
      <path
         d="m 122.29557,99.24675 1.79688,0 2.24609,8.53516 2.23633,-8.53516 2.11914,0 2.2461,8.53516 2.23632,-8.53516 1.79688,0 -2.86133,10.9375 -2.11914,0 -2.35352,-8.96484 -2.36328,8.96484 -2.11914,0 -2.86133,-10.9375"
         style="font-size:20px"
         id="path3083" />
      <path
         d="m 149.06315,104.26628 0,0.87891 -8.26172,0 c 0.0781,1.23698 0.44922,2.18099 1.11328,2.83203 0.67057,0.64453 1.60156,0.9668 2.79297,0.9668 0.6901,0 1.35742,-0.0846 2.00196,-0.25391 0.65103,-0.16927 1.29556,-0.42318 1.93359,-0.76172 l 0,1.69922 c -0.64454,0.27344 -1.30535,0.48177 -1.98242,0.625 -0.67709,0.14323 -1.36394,0.21484 -2.06055,0.21484 -1.7448,0 -3.12826,-0.50781 -4.15039,-1.52343 -1.01563,-1.01563 -1.52344,-2.38932 -1.52344,-4.1211 0,-1.79036 0.48177,-3.20963 1.44532,-4.25781 0.97004,-1.054678 2.27538,-1.582021 3.91601,-1.582032 1.47135,1.1e-5 2.63346,0.475271 3.48633,1.425782 0.85936,0.94402 1.28905,2.22982 1.28906,3.85742 m -1.79687,-0.52734 c -0.013,-0.98307 -0.28973,-1.76757 -0.83008,-2.35352 -0.53386,-0.58593 -1.2435,-0.87889 -2.12891,-0.8789 -1.00261,1e-5 -1.80664,0.28321 -2.41211,0.8496 -0.59896,0.56642 -0.94401,1.36394 -1.03515,2.39258 l 6.40625,-0.01"
         style="font-size:20px"
         id="path3085" />
      <path
         d="m 161.10417,103.58269 0,6.60156 -1.79688,0 0,-6.54297 c -1e-5,-1.03515 -0.20183,-1.80989 -0.60547,-2.32422 -0.40365,-0.51431 -1.00912,-0.77147 -1.8164,-0.77148 -0.97006,1e-5 -1.73503,0.30925 -2.29492,0.92773 -0.5599,0.6185 -0.83985,1.4616 -0.83985,2.5293 l 0,6.18164 -1.80664,0 0,-10.9375 1.80664,0 0,1.69922 c 0.42969,-0.65754 0.93424,-1.14908 1.51367,-1.474611 0.58594,-0.32551 1.25976,-0.48827 2.02149,-0.488281 1.2565,1.1e-5 2.20702,0.390636 2.85156,1.171872 0.64452,0.77475 0.96679,1.91733 0.9668,3.42774"
         style="font-size:20px"
         id="path3087" />
      <path
         d="m 171.90495,100.90691 0,-5.917973 1.79687,0 0,15.195313 -1.79687,0 0,-1.64063 c -0.37761,0.65105 -0.85613,1.13607 -1.43555,1.45508 -0.57292,0.3125 -1.26302,0.46875 -2.07031,0.46875 -1.32162,0 -2.39909,-0.52734 -3.23242,-1.58203 -0.82683,-1.05468 -1.24024,-2.4414 -1.24024,-4.16015 0,-1.71875 0.41341,-3.10546 1.24024,-4.16016 0.83333,-1.054678 1.9108,-1.582021 3.23242,-1.582032 0.80729,1.1e-5 1.49739,0.159516 2.07031,0.478516 0.57942,0.31251 1.05794,0.794276 1.43555,1.445316 m -6.12305,3.81836 c 0,1.32161 0.27018,2.36002 0.81055,3.11523 0.54687,0.7487 1.29557,1.12305 2.24609,1.12305 0.95052,0 1.69921,-0.37435 2.2461,-1.12305 0.54686,-0.75521 0.8203,-1.79362 0.82031,-3.11523 -1e-5,-1.32161 -0.27345,-2.35677 -0.82031,-3.10547 -0.54689,-0.7552 -1.29558,-1.13281 -2.2461,-1.13282 -0.95052,1e-5 -1.69922,0.37762 -2.24609,1.13282 -0.54037,0.7487 -0.81055,1.78386 -0.81055,3.10547"
         style="font-size:20px"
         id="path3089" />
      <path
         d="m 177.21745,105.86784 0,-6.62109 1.79687,0 0,6.55273 c 0,1.03516 0.20182,1.81316 0.60547,2.33399 0.40364,0.51432 1.00911,0.77148 1.81641,0.77148 0.97004,0 1.73502,-0.30924 2.29492,-0.92773 0.5664,-0.61849 0.8496,-1.46159 0.84961,-2.5293 l 0,-6.20117 1.79688,0 0,10.9375 -1.79688,0 0,-1.67969 c -0.43621,0.66407 -0.94402,1.15886 -1.52344,1.48438 -0.57292,0.31901 -1.24024,0.47851 -2.00195,0.47851 -1.25651,0 -2.21029,-0.39062 -2.86133,-1.17187 -0.65104,-0.78125 -0.97656,-1.92383 -0.97656,-3.42774 m 4.52148,-6.884762 0,0"
         style="font-size:20px"
         id="path3091" />
      <path
         d="m 199.19011,103.58269 0,6.60156 -1.79688,0 0,-6.54297 c -10e-6,-1.03515 -0.20183,-1.80989 -0.60547,-2.32422 -0.40365,-0.51431 -1.00912,-0.77147 -1.8164,-0.77148 -0.97006,1e-5 -1.73504,0.30925 -2.29493,0.92773 -0.5599,0.6185 -0.83984,1.4616 -0.83984,2.5293 l 0,6.18164 -1.80664,0 0,-10.9375 1.80664,0 0,1.69922 c 0.42968,-0.65754 0.93424,-1.14908 1.51367,-1.474611 0.58593,-0.32551 1.25976,-0.48827 2.02149,-0.488281 1.2565,1.1e-5 2.20702,0.390636 2.85156,1.171872 0.64452,0.77475 0.96678,1.91733 0.9668,3.42774"
         style="font-size:20px"
         id="path3093" />
      <path
         d="m 209.99089,104.58855 c -1e-5,-1.30208 -0.27019,-2.31119 -0.81055,-3.02735 -0.53386,-0.71613 -1.28581,-1.07421 -2.25586,-1.07422 -0.96355,1e-5 -1.7155,0.35809 -2.25586,1.07422 -0.53386,0.71616 -0.80078,1.72527 -0.80078,3.02735 0,1.29557 0.26692,2.30143 0.80078,3.01757 0.54036,0.71615 1.29231,1.07423 2.25586,1.07422 0.97005,1e-5 1.722,-0.35807 2.25586,-1.07422 0.54036,-0.71614 0.81054,-1.722 0.81055,-3.01757 m 1.79687,4.23828 c -1e-5,1.86198 -0.41342,3.24544 -1.24023,4.15039 -0.82683,0.91145 -2.09311,1.36718 -3.79883,1.36719 -0.63152,-1e-5 -1.22722,-0.0488 -1.78711,-0.14649 -0.5599,-0.0911 -1.10352,-0.23438 -1.63086,-0.42969 l 0,-1.74804 c 0.52734,0.28645 1.04817,0.49804 1.5625,0.63476 0.51432,0.13672 1.03841,0.20508 1.57227,0.20508 1.17837,0 2.06054,-0.30925 2.64648,-0.92773 0.58593,-0.61198 0.8789,-1.53972 0.87891,-2.78321 l 0,-0.88867 c -0.37111,0.64453 -0.84637,1.1263 -1.42578,1.44531 -0.57944,0.31901 -1.2728,0.47852 -2.08008,0.47852 -1.34115,0 -2.42188,-0.51107 -3.24219,-1.5332 -0.82031,-1.02214 -1.23047,-2.3763 -1.23047,-4.0625 0,-1.6927 0.41016,-3.05012 1.23047,-4.07227 0.82031,-1.022124 1.90104,-1.533191 3.24219,-1.533202 0.80728,1.1e-5 1.50064,0.159516 2.08008,0.478516 0.57941,0.31902 1.05467,0.800786 1.42578,1.445316 l 0,-1.66016 1.79687,0 0,9.58008"
         style="font-size:20px"
         id="path3095" />
    </g>
    <g
       id="g4157"
       transform="translate(-2.7949791,34.694269)">
      <rect
         ry="20.15086"
         y="308.95718"
         x="307.80829"
         height="63.418945"
         width="131.30672"
         id="rect3011-6-8-4-8-1"
         style="fill:#4a6eff;fill-opacity:1;stroke:#333333;stroke-width:0.50435948" />
      <text
         sodipodi:linespacing="125%"
         id="text4095"
         y="354"
         x="332"
         style="font-size:40px;font-style:normal;font-weight:normal;line-height:125%;letter-spacing:0px;word-spacing:0px;fill:#000000;fill-opacity:1;stroke:none;font-family:Sans"
         xml:space="preserve"><tspan
           y="354"
           x="332"
           id="tspan4097"
           sodipodi:role="line">ADB</tspan></text>
    </g>
    <text
       xml:space="preserve"
       style="font-size:55.50543594px;font-style:normal;font-weight:normal;line-height:125%;letter-spacing:0px;word-spacing:0px;fill:#000000;fill-opacity:1;stroke:none;font-family:Sans"
       x="434.224"
       y="544.87836"
       id="text4103"
       sodipodi:linespacing="125%"
       transform="scale(1.3876359,0.72065011)"><tspan
         sodipodi:role="line"
         id="tspan4105"
         x="434.224"
         y="544.87836"
         style="font-size:38.85380554px" /></text>
    <g
       id="g4162"
       transform="translate(0,32.027582)">
      <rect
         ry="20.15086"
         y="311.62387"
         x="554.34662"
         height="63.418945"
         width="131.30672"
         id="rect3011-6-8-4-8-1-0"
         style="fill:#4a6eff;fill-opacity:1;stroke:#333333;stroke-width:0.50435948" />
      <text
         sodipodi:linespacing="125%"
         id="text4107"
         y="353.99997"
         x="574.66663"
         style="font-size:40px;font-style:normal;font-weight:normal;line-height:125%;letter-spacing:0px;word-spacing:0px;fill:#000000;fill-opacity:1;stroke:none;font-family:Sans"
         xml:space="preserve"><tspan
           y="353.99997"
           x="574.66663"
           id="tspan4109"
           sodipodi:role="line">AOA</tspan></text>
    </g>
    <text
       xml:space="preserve"
       style="font-size:39.0774231px;font-style:normal;font-weight:normal;line-height:125%;letter-spacing:0px;word-spacing:0px;fill:#000000;fill-opacity:1;stroke:none;font-family:Sans"
       x="252.22986"
       y="446.73431"
       id="text4138"
       sodipodi:linespacing="125%"
       transform="scale(0.97693555,1.023609)"><tspan
         sodipodi:role="line"
         id="tspan4140"
         x="252.22986"
         y="446.73431">Transport Protokoll Layer</tspan></text>
    <g
       id="g4224"
       transform="translate(0,-2.6390743)">
      <rect
         ry="20.15086"
         y="346.29053"
         x="23.808277"
         height="63.418945"
         width="195.05013"
         id="rect3011-6-8"
         style="fill:#4a6eff;fill-opacity:1;stroke:#333333;stroke-width:0.61470938" />
      <text
         sodipodi:linespacing="125%"
         id="text4142"
         y="392.29688"
         x="66.538422"
         style="font-size:40px;font-style:normal;font-weight:normal;line-height:125%;letter-spacing:0px;word-spacing:0px;fill:#000000;fill-opacity:1;stroke:none;font-family:Sans"
         xml:space="preserve"><tspan
           y="392.29688"
           x="66.538422"
           id="tspan4144"
           sodipodi:role="line">UART</tspan></text>
    </g>
    <text
       xml:space="preserve"
       style="font-size:40px;font-style:normal;font-weight:normal;line-height:125%;letter-spacing:0px;word-spacing:0px;fill:#000000;fill-opacity:1;stroke:none;font-family:Sans"
       x="77.803574"
       y="300.98306"
       id="text4138-4"
       sodipodi:linespacing="125%"><tspan
         sodipodi:role="line"
         id="tspan4140-9"
         x="77.803574"
         y="300.98306">Anwendungs Protokoll Layer</tspan></text>
    <path
       style="fill:none;stroke:#000000;stroke-width:1px;stroke-linecap:butt;stroke-linejoin:miter;stroke-opacity:1"
       d="m 248,442.0851 0,-153.33333"
       id="path3101"
       inkscape:connector-curvature="0"
       transform="translate(-3.469698,38.530301)" />
  </g>
</svg>
